<svg xmlns="http://www.w3.org/2000/svg" version="1.1" xmlns:xlink="http://www.w3.org/1999/xlink" width="2000" height="1500" viewBox="0 0 2000 1500"><rect width="2000" height="1500" x="0" y="0" id="background" stroke="transparent" fill="#ffffff"></rect><svg xml:space="preserve" width="1500" height="1125" data-version="2" data-id="lg_A7UTAZdGfc7MW6N3HY" viewBox="0 0 816 816" x="250" y="187.5"><rect width="100%" height="100%" fill="transparent"></rect><path fill="#eab540" d="M83.527 490.84a3.732 3.732 0 0 0-7.202 1.933 337.686 337.686 0 0 0 34.07 81.792 3.735 3.735 0 0 0 6.464-3.747 330.454 330.454 0 0 1-33.332-79.978m27.578-250.61a3.747 3.747 0 0 0 5.097-1.373 333.992 333.992 0 0 1 52.633-68.858 3.732 3.732 0 0 0-5.292-5.262 341.433 341.433 0 0 0-53.812 70.396 3.724 3.724 0 0 0 1.374 5.097m124.439-122.692a3.732 3.732 0 0 0 1.88-.508 329.976 329.976 0 0 1 79.95-33.399 3.734 3.734 0 1 0-1.949-7.21 337.76 337.76 0 0 0-81.755 34.16 3.732 3.732 0 0 0 1.874 6.957M697.1 568.9a3.74 3.74 0 0 0-5.097 1.366 334.178 334.178 0 0 1-52.775 68.746 3.734 3.734 0 0 0 5.285 5.277 340.888 340.888 0 0 0 53.953-70.291 3.717 3.717 0 0 0-1.366-5.098M403.25 72.145h1.022c28.787 0 57.38 3.687 84.95 10.956a3.717 3.717 0 0 0 4.56-2.657 3.732 3.732 0 0 0-2.65-4.56 340.992 340.992 0 0 0-86.905-11.203h-.977a3.732 3.732 0 0 0 0 7.464M80.534 314.432a3.732 3.732 0 0 0-4.56 2.65 341.172 341.172 0 0 0-11.292 87.308l3.739.552h-3.732c0 2.06 1.672 3.396 3.732 3.396 2.052 0 3.724-2.015 3.724-4.075 0-28.891 3.717-57.58 11.039-85.27a3.732 3.732 0 0 0-2.65-4.56m659.595 84.74a3.732 3.732 0 0 0-3.732 3.733v1.365c0 29.138-3.777 58.052-11.225 85.928a3.732 3.732 0 0 0 7.21 1.925 340.477 340.477 0 0 0 11.47-87.853v-1.365a3.724 3.724 0 0 0-3.723-3.732M728.426 319.8a3.732 3.732 0 0 0 3.605-4.71 337.5 337.5 0 0 0-34.243-81.725 3.733 3.733 0 0 0-6.448 3.761 330.133 330.133 0 0 1 33.48 79.92 3.74 3.74 0 0 0 3.606 2.754m-157.89 372.048a330.932 330.932 0 0 1-80.032 33.25 3.725 3.725 0 1 0 1.933 7.194 338.373 338.373 0 0 0 81.838-33.996 3.727 3.727 0 1 0-3.74-6.448m-331.962.328a332.626 332.626 0 0 1-68.806-52.707 3.732 3.732 0 0 0-5.277 5.276 340.59 340.59 0 0 0 70.351 53.902 3.754 3.754 0 0 0 5.105-1.373 3.74 3.74 0 0 0-1.373-5.098m165.697 44.221c-29.026 0-57.827-3.747-85.599-11.135a3.731 3.731 0 1 0-1.925 7.21 340.709 340.709 0 0 0 87.524 11.381h.343c2.06 0 3.568-1.672 3.568-3.732s-1.851-3.724-3.911-3.724m165.115-620.373a332.984 332.984 0 0 1 68.903 52.572 3.734 3.734 0 0 0 5.262-5.299 340.783 340.783 0 0 0-70.448-53.744 3.731 3.731 0 1 0-3.717 6.47"></path><path fill="#683ae7" d="M565.955 390.739a23.583 23.583 0 0 0-6.95 1.15l-34.688-60.306c2.049-3.53 3.316-7.576 3.316-11.953a23.966 23.966 0 0 0-23.944-23.944 23.804 23.804 0 0 0-18.063 8.401l-54.756-21.504c.17-1.143.354-2.285.354-3.471a23.966 23.966 0 0 0-23.944-23.944 23.973 23.973 0 0 0-23.944 23.944c0 .906.17 1.761.266 2.638l-46.4 6.53a23.878 23.878 0 0 0-21.091-12.853 23.973 23.973 0 0 0-23.944 23.944c0 4.525 1.334 8.71 3.523 12.322l-38.64 39.692a23.516 23.516 0 0 0-7.008-1.171 23.973 23.973 0 0 0-23.943 23.943 23.973 23.973 0 0 0 23.943 23.944c4.378 0 8.431-1.267 11.961-3.323l62.28 37.695c-.088.81-.25 1.614-.25 2.454a23.973 23.973 0 0 0 23.944 23.944c6.773 0 12.875-2.86 17.23-7.4l91.398 77.676a23.671 23.671 0 0 0-1.393 7.739 23.966 23.966 0 0 0 23.944 23.943 23.966 23.966 0 0 0 23.944-23.943 23.435 23.435 0 0 0-.435-4.282l60.858-94.235c.81.08 1.6.243 2.432.243a23.966 23.966 0 0 0 23.944-23.937 23.966 23.966 0 0 0-23.944-23.936m-203.946-6.957a23.892 23.892 0 0 0 20.42-19.271l37.623 7.111c-.096.848-.258 1.673-.258 2.535 0 5.137 1.665 9.883 4.436 13.789l-53.363 40.378a23.93 23.93 0 0 0-14.68-15.786zm45.264-80.72c2.004 0 3.928-.316 5.785-.788l18.107 51.602c-4.06 2.528-7.318 6.19-9.286 10.598l-39.331-7.436a23.73 23.73 0 0 0-7.768-14.68l25.956-40.312c2.1.597 4.26 1.017 6.537 1.017m-35.559 133.862 57.727-43.68c4.001 3.007 8.917 4.857 14.297 4.857 3.78 0 7.31-.958 10.494-2.528l20.141 36.952a23.833 23.833 0 0 0-8.261 14.267l-94.471-9.145c.03-.251.059-.487.073-.723m170.297-22.241c0 1.164.177 2.292.347 3.42l-32.574 19.83a23.907 23.907 0 0 0-20.12-11.068c-3.183 0-6.212.656-8.99 1.783l-20.34-37.297a23.826 23.826 0 0 0 7.355-17.194c0-4.716-1.415-9.086-3.78-12.793l25.822-22.352c3.936 2.844 8.74 4.569 13.958 4.569 5.992 0 11.401-2.285 15.602-5.933l33.023 57.402a23.914 23.914 0 0 0-10.303 19.633m-57.52-80.874L459 355.866a23.693 23.693 0 0 0-15.255-5.645c-1.997 0-3.913.317-5.77.781l-18.108-51.61a23.951 23.951 0 0 0 8.814-9.75l52.922 20.783a23.634 23.634 0 0 0 2.888 23.384m-90.542-34.814-25.322 39.31a23.745 23.745 0 0 0-9.706-2.101c-3.515 0-6.824.803-9.831 2.167l-15.926-22.25a23.863 23.863 0 0 0 6.883-16.75c0-1.371-.184-2.69-.405-3.995l45.846-6.448c1.85 4.09 4.776 7.59 8.46 10.067m-93.484 18.365a23.752 23.752 0 0 0 15.646 5.962c4.024 0 7.767-1.09 11.098-2.86l15.735 21.991a23.804 23.804 0 0 0-7.96 17.658l-61.433 9.809a23.892 23.892 0 0 0-9.543-15.108zm-26.81 60.003 62.56-9.986a23.914 23.914 0 0 0 18.291 16.272l-5.549 27.46c-.331-.015-.648-.104-.987-.104a23.944 23.944 0 0 0-21.748 14.047l-58.213-35.234a23.64 23.64 0 0 0 5.646-12.455m96.048 67.498 96.357 9.338a23.878 23.878 0 0 0 19.073 20.097l-8.984 38.963a23.819 23.819 0 0 0-16.007 9.241l-90.727-77.115c.089-.177.2-.347.288-.524m113.978 68.552 8.983-38.963c11.784-1.496 20.945-11.467 20.945-23.634 0-2.1-.361-4.105-.87-6.043l31.888-19.434c2.447 4.864 6.441 8.785 11.401 11.07l-56.665 87.75a23.988 23.988 0 0 0-15.682-10.746" opacity=".33"></path><path fill="#eab540" d="M87.66 400.062a3.544 3.544 0 0 0-7.08-.12 320.678 320.678 0 0 0 9.691 83.581 3.547 3.547 0 0 0 6.88-1.728 313.81 313.81 0 0 1-9.491-81.733m90.772-221.55a3.558 3.558 0 0 0 5.013.08 317.17 317.17 0 0 1 66.07-49.08 3.544 3.544 0 0 0-3.454-6.188 324.236 324.236 0 0 0-67.548 50.175 3.537 3.537 0 0 0-.08 5.013m145.71-79.427a3.544 3.544 0 0 0 1.849.03 313.357 313.357 0 0 1 81.724-9.562 3.546 3.546 0 1 0 .109-7.091 320.75 320.75 0 0 0-83.572 9.783 3.544 3.544 0 0 0-.11 6.84m303.185 532.84a3.55 3.55 0 0 0-5.011-.087 317.347 317.347 0 0 1-66.17 48.94 3.546 3.546 0 0 0 3.443 6.2 323.719 323.719 0 0 0 67.65-50.042 3.53 3.53 0 0 0 .088-5.01m-138.215-530.38.933.268c26.278 7.535 51.414 18.385 74.679 32.238a3.53 3.53 0 0 0 4.858-1.232 3.544 3.544 0 0 0-1.225-4.856 323.818 323.818 0 0 0-76.399-32.974l-.892-.256a3.544 3.544 0 0 0-1.954 6.813m-358.009 136.7a3.544 3.544 0 0 0-4.856 1.225 323.988 323.988 0 0 0-33.162 76.743l3.27 1.483-3.407-.976c-.54 1.88.637 3.537 2.517 4.076 1.874.538 3.927-.864 4.467-2.745 7.562-26.373 18.465-51.59 32.396-74.95a3.544 3.544 0 0 0-1.225-4.856m579.928 250.008a3.544 3.544 0 0 0-4.383 2.43l-.358 1.246c-7.627 26.598-18.642 52.003-32.739 75.5a3.544 3.544 0 0 0 6.078 3.645 323.33 323.33 0 0 0 33.467-77.193l.358-1.247a3.537 3.537 0 0 0-2.423-4.381m10.094-75.52a3.544 3.544 0 0 0 4.523-3.356 320.501 320.501 0 0 0-9.866-83.566 3.545 3.545 0 0 0-6.871 1.746 313.506 313.506 0 0 1 9.644 81.718 3.55 3.55 0 0 0 2.57 3.458M479.61 711.027a314.264 314.264 0 0 1-81.76 9.404 3.537 3.537 0 1 0-.119 7.074 321.33 321.33 0 0 0 83.604-9.612 3.54 3.54 0 1 0-1.725-6.866m-303.117-86.592a315.873 315.873 0 0 1-49.013-66.124 3.544 3.544 0 0 0-6.198 3.435 323.436 323.436 0 0 0 50.111 67.619 3.565 3.565 0 0 0 5.02.082 3.55 3.55 0 0 0 .08-5.012m139.681 83.739c-26.496-7.598-51.806-18.557-75.224-32.571a3.543 3.543 0 1 0-3.645 6.077 323.549 323.549 0 0 0 76.918 33.3l.313.09c1.88.54 3.694-.592 4.234-2.473s-.715-3.884-2.596-4.423m313.111-523.087a316.213 316.213 0 0 1 49.137 66.027 3.546 3.546 0 0 0 6.19-3.46 323.62 323.62 0 0 0-50.24-67.501 3.543 3.543 0 1 0-5.087 4.934"></path></svg></svg>